<?xml version="1.0" encoding="UTF-8" standalone="no"?>
<!-- Created with Inkscape (http://www.inkscape.org/) -->

<svg
   xmlns:dc="http://purl.org/dc/elements/1.1/"
   xmlns:cc="http://creativecommons.org/ns#"
   xmlns:rdf="http://www.w3.org/1999/02/22-rdf-syntax-ns#"
   xmlns:svg="http://www.w3.org/2000/svg"
   xmlns="http://www.w3.org/2000/svg"
   xmlns:sodipodi="http://sodipodi.sourceforge.net/DTD/sodipodi-0.dtd"
   xmlns:inkscape="http://www.inkscape.org/namespaces/inkscape"
   width="602.36218"
   height="230.31496"
   id="svg3086"
   version="1.1"
   inkscape:version="0.48.1 r9760"
   sodipodi:docname="MaxOfRightIsMaxOfSet.svg">
  <defs
     id="defs3088">
    <marker
       style="overflow:visible"
       inkscape:stockid="InfiniteLineEnd"
       id="InfiniteLineEnd"
       refX="0"
       refY="0"
       orient="auto">
      <g
         id="g4124">
        <circle
           id="circle4126"
           r="0.80000001"
           cy="0"
           cx="3"
           sodipodi:cx="3"
           sodipodi:cy="0"
           sodipodi:rx="0.80000001"
           sodipodi:ry="0.80000001" />
        <circle
           id="circle4128"
           r="0.80000001"
           cy="0"
           cx="6.5"
           sodipodi:cx="6.5"
           sodipodi:cy="0"
           sodipodi:rx="0.80000001"
           sodipodi:ry="0.80000001" />
        <circle
           id="circle4130"
           r="0.80000001"
           cy="0"
           cx="10"
           sodipodi:cx="10"
           sodipodi:cy="0"
           sodipodi:rx="0.80000001"
           sodipodi:ry="0.80000001" />
      </g>
    </marker>
    <marker
       style="overflow:visible"
       inkscape:stockid="InfiniteLineStart"
       id="InfiniteLineStart"
       refX="0"
       refY="0"
       orient="auto">
      <g
         id="g4133"
         transform="translate(-13,0)">
        <circle
           d="M 3.8,0 C 3.8,0.44182781 3.4418278,0.80000001 3,0.80000001 2.5581722,0.80000001 2.2,0.44182781 2.2,0 c 0,-0.44182781 0.3581722,-0.80000001 0.8,-0.80000001 0.4418278,0 0.8,0.3581722 0.8,0.80000001 z"
           id="circle4135"
           r="0.80000001"
           cy="0"
           cx="3"
           sodipodi:cx="3"
           sodipodi:cy="0"
           sodipodi:rx="0.80000001"
           sodipodi:ry="0.80000001" />
        <circle
           d="M 7.3,0 C 7.3,0.44182781 6.9418278,0.80000001 6.5,0.80000001 6.0581722,0.80000001 5.7,0.44182781 5.7,0 c 0,-0.44182781 0.3581722,-0.80000001 0.8,-0.80000001 0.4418278,0 0.8,0.3581722 0.8,0.80000001 z"
           id="circle4137"
           r="0.80000001"
           cy="0"
           cx="6.5"
           sodipodi:cx="6.5"
           sodipodi:cy="0"
           sodipodi:rx="0.80000001"
           sodipodi:ry="0.80000001" />
        <circle
           d="M 10.8,0 C 10.8,0.44182781 10.441828,0.80000001 10,0.80000001 9.5581722,0.80000001 9.2,0.44182781 9.2,0 c 0,-0.44182781 0.3581722,-0.80000001 0.8,-0.80000001 0.441828,0 0.8,0.3581722 0.8,0.80000001 z"
           id="circle4139"
           r="0.80000001"
           cy="0"
           cx="10"
           sodipodi:cx="10"
           sodipodi:cy="0"
           sodipodi:rx="0.80000001"
           sodipodi:ry="0.80000001" />
      </g>
    </marker>
  </defs>
  <sodipodi:namedview
     id="base"
     pagecolor="#ffffff"
     bordercolor="#666666"
     borderopacity="1.0"
     inkscape:pageopacity="0.0"
     inkscape:pageshadow="2"
     inkscape:zoom="1.979899"
     inkscape:cx="260.97362"
     inkscape:cy="131.26621"
     inkscape:document-units="mm"
     inkscape:current-layer="layer1"
     showgrid="true"
     inkscape:window-width="1920"
     inkscape:window-height="1032"
     inkscape:window-x="0"
     inkscape:window-y="0"
     inkscape:window-maximized="1"
     units="mm"
     fit-margin-top="0"
     fit-margin-left="0"
     fit-margin-right="0"
     fit-margin-bottom="0">
    <inkscape:grid
       type="xygrid"
       id="grid3113"
       empspacing="5"
       visible="true"
       enabled="true"
       snapvisiblegridlinesonly="true"
       spacingx="2.5mm"
       spacingy="2.5mm"
       units="mm" />
  </sodipodi:namedview>
  <metadata
     id="metadata3091">
    <rdf:RDF>
      <cc:Work
         rdf:about="">
        <dc:format>image/svg+xml</dc:format>
        <dc:type
           rdf:resource="http://purl.org/dc/dcmitype/StillImage" />
        <dc:title></dc:title>
      </cc:Work>
    </rdf:RDF>
  </metadata>
  <g
     inkscape:label="Layer 1"
     inkscape:groupmode="layer"
     id="layer1"
     transform="translate(0,-317.12596)">
    <path
       style="fill:none;stroke:#000000;stroke-width:0.99921262;stroke-linecap:butt;stroke-linejoin:round;stroke-miterlimit:4;stroke-opacity:1;stroke-dasharray:none;marker-start:url(#InfiniteLineStart);marker-end:url(#InfiniteLineEnd)"
       d="m 17.716535,432.28344 566.929135,0"
       id="path3115"
       inkscape:connector-curvature="0"
       transform="translate(0,6.1562498e-6)"
       sodipodi:nodetypes="cc" />
    <path
       sodipodi:type="arc"
       style="fill:#663e00;fill-opacity:1;stroke:none"
       id="path4530"
       sodipodi:cx="57.578739"
       sodipodi:cy="418.99603"
       sodipodi:rx="4.4291339"
       sodipodi:ry="4.4291339"
       d="m 62.007873,418.99603 c 0,2.44615 -1.982991,4.42914 -4.429134,4.42914 -2.446143,0 -4.429134,-1.98299 -4.429134,-4.42914 0,-2.44614 1.982991,-4.42913 4.429134,-4.42913 2.446143,0 4.429134,1.98299 4.429134,4.42913 z"
       transform="translate(177.16536,13.287416)" />
    <path
       transform="translate(150.59055,13.287416)"
       d="m 62.007873,418.99603 c 0,2.44615 -1.982991,4.42914 -4.429134,4.42914 -2.446143,0 -4.429134,-1.98299 -4.429134,-4.42914 0,-2.44614 1.982991,-4.42913 4.429134,-4.42913 2.446143,0 4.429134,1.98299 4.429134,4.42913 z"
       sodipodi:ry="4.4291339"
       sodipodi:rx="4.4291339"
       sodipodi:cy="418.99603"
       sodipodi:cx="57.578739"
       id="path4532"
       style="fill:#663e00;fill-opacity:1;stroke:none"
       sodipodi:type="arc" />
    <path
       sodipodi:type="arc"
       style="fill:#663e00;fill-opacity:1;stroke:none"
       id="path4534"
       sodipodi:cx="57.578739"
       sodipodi:cy="418.99603"
       sodipodi:rx="4.4291339"
       sodipodi:ry="4.4291339"
       d="m 62.007873,418.99603 c 0,2.44615 -1.982991,4.42914 -4.429134,4.42914 -2.446143,0 -4.429134,-1.98299 -4.429134,-4.42914 0,-2.44614 1.982991,-4.42913 4.429134,-4.42913 2.446143,0 4.429134,1.98299 4.429134,4.42913 z"
       transform="translate(141.73228,13.287416)" />
    <path
       transform="translate(88.582678,13.287416)"
       d="m 62.007873,418.99603 c 0,2.44615 -1.982991,4.42914 -4.429134,4.42914 -2.446143,0 -4.429134,-1.98299 -4.429134,-4.42914 0,-2.44614 1.982991,-4.42913 4.429134,-4.42913 2.446143,0 4.429134,1.98299 4.429134,4.42913 z"
       sodipodi:ry="4.4291339"
       sodipodi:rx="4.4291339"
       sodipodi:cy="418.99603"
       sodipodi:cx="57.578739"
       id="path4536"
       style="fill:#663e00;fill-opacity:1;stroke:none"
       sodipodi:type="arc" />
    <path
       sodipodi:type="arc"
       style="fill:#663e00;fill-opacity:1;stroke:none"
       id="path4538"
       sodipodi:cx="57.578739"
       sodipodi:cy="418.99603"
       sodipodi:rx="4.4291339"
       sodipodi:ry="4.4291339"
       d="m 62.007873,418.99603 c 0,2.44615 -1.982991,4.42914 -4.429134,4.42914 -2.446143,0 -4.429134,-1.98299 -4.429134,-4.42914 0,-2.44614 1.982991,-4.42913 4.429134,-4.42913 2.446143,0 4.429134,1.98299 4.429134,4.42913 z"
       transform="translate(44.29134,13.287416)" />
    <path
       transform="translate(26.574804,13.287416)"
       d="m 62.007873,418.99603 c 0,2.44615 -1.982991,4.42914 -4.429134,4.42914 -2.446143,0 -4.429134,-1.98299 -4.429134,-4.42914 0,-2.44614 1.982991,-4.42913 4.429134,-4.42913 2.446143,0 4.429134,1.98299 4.429134,4.42913 z"
       sodipodi:ry="4.4291339"
       sodipodi:rx="4.4291339"
       sodipodi:cy="418.99603"
       sodipodi:cx="57.578739"
       id="path4540"
       style="fill:#663e00;fill-opacity:1;stroke:none"
       sodipodi:type="arc" />
    <path
       sodipodi:type="arc"
       style="fill:#663e00;fill-opacity:1;stroke:none"
       id="path4542"
       sodipodi:cx="57.578739"
       sodipodi:cy="418.99603"
       sodipodi:rx="4.4291339"
       sodipodi:ry="4.4291339"
       d="m 62.007873,418.99603 c 0,2.44615 -1.982991,4.42914 -4.429134,4.42914 -2.446143,0 -4.429134,-1.98299 -4.429134,-4.42914 0,-2.44614 1.982991,-4.42913 4.429134,-4.42913 2.446143,0 4.429134,1.98299 4.429134,4.42913 z"
       transform="translate(-26.574802,13.287416)" />
    <path
       transform="translate(212.59843,13.287416)"
       d="m 62.007873,418.99603 c 0,2.44615 -1.982991,4.42914 -4.429134,4.42914 -2.446143,0 -4.429134,-1.98299 -4.429134,-4.42914 0,-2.44614 1.982991,-4.42913 4.429134,-4.42913 2.446143,0 4.429134,1.98299 4.429134,4.42913 z"
       sodipodi:ry="4.4291339"
       sodipodi:rx="4.4291339"
       sodipodi:cy="418.99603"
       sodipodi:cx="57.578739"
       id="path4544"
       style="fill:#000000;fill-opacity:1;stroke:none"
       sodipodi:type="arc" />
    <path
       sodipodi:type="arc"
       style="fill:#5c7700;fill-opacity:1;stroke:none"
       id="path4546"
       sodipodi:cx="57.578739"
       sodipodi:cy="418.99603"
       sodipodi:rx="4.4291339"
       sodipodi:ry="4.4291339"
       d="m 62.007873,418.99603 c 0,2.44615 -1.982991,4.42914 -4.429134,4.42914 -2.446143,0 -4.429134,-1.98299 -4.429134,-4.42914 0,-2.44614 1.982991,-4.42913 4.429134,-4.42913 2.446143,0 4.429134,1.98299 4.429134,4.42913 z"
       transform="translate(301.1811,13.287416)" />
    <path
       transform="translate(318.89764,13.287416)"
       d="m 62.007873,418.99603 c 0,2.44615 -1.982991,4.42914 -4.429134,4.42914 -2.446143,0 -4.429134,-1.98299 -4.429134,-4.42914 0,-2.44614 1.982991,-4.42913 4.429134,-4.42913 2.446143,0 4.429134,1.98299 4.429134,4.42913 z"
       sodipodi:ry="4.4291339"
       sodipodi:rx="4.4291339"
       sodipodi:cy="418.99603"
       sodipodi:cx="57.578739"
       id="path4548"
       style="fill:#5c7700;fill-opacity:1;stroke:none"
       sodipodi:type="arc" />
    <path
       sodipodi:type="arc"
       style="fill:#5c7700;fill-opacity:1;stroke:none"
       id="path4550"
       sodipodi:cx="57.578739"
       sodipodi:cy="418.99603"
       sodipodi:rx="4.4291339"
       sodipodi:ry="4.4291339"
       d="m 62.007873,418.99603 c 0,2.44615 -1.982991,4.42914 -4.429134,4.42914 -2.446143,0 -4.429134,-1.98299 -4.429134,-4.42914 0,-2.44614 1.982991,-4.42913 4.429134,-4.42913 2.446143,0 4.429134,1.98299 4.429134,4.42913 z"
       transform="translate(407.48032,13.287416)" />
    <path
       transform="translate(372.04725,13.287416)"
       d="m 62.007873,418.99603 c 0,2.44615 -1.982991,4.42914 -4.429134,4.42914 -2.446143,0 -4.429134,-1.98299 -4.429134,-4.42914 0,-2.44614 1.982991,-4.42913 4.429134,-4.42913 2.446143,0 4.429134,1.98299 4.429134,4.42913 z"
       sodipodi:ry="4.4291339"
       sodipodi:rx="4.4291339"
       sodipodi:cy="418.99603"
       sodipodi:cx="57.578739"
       id="path4552"
       style="fill:#5c7700;fill-opacity:1;stroke:none"
       sodipodi:type="arc" />
    <path
       sodipodi:type="arc"
       style="fill:#5c7700;fill-opacity:1;stroke:none"
       id="path4554"
       sodipodi:cx="57.578739"
       sodipodi:cy="418.99603"
       sodipodi:rx="4.4291339"
       sodipodi:ry="4.4291339"
       d="m 62.007873,418.99603 c 0,2.44615 -1.982991,4.42914 -4.429134,4.42914 -2.446143,0 -4.429134,-1.98299 -4.429134,-4.42914 0,-2.44614 1.982991,-4.42913 4.429134,-4.42913 2.446143,0 4.429134,1.98299 4.429134,4.42913 z"
       transform="translate(434.05512,13.287416)" />
    <path
       transform="translate(460.62992,13.287416)"
       d="m 62.007873,418.99603 c 0,2.44615 -1.982991,4.42914 -4.429134,4.42914 -2.446143,0 -4.429134,-1.98299 -4.429134,-4.42914 0,-2.44614 1.982991,-4.42913 4.429134,-4.42913 2.446143,0 4.429134,1.98299 4.429134,4.42913 z"
       sodipodi:ry="4.4291339"
       sodipodi:rx="4.4291339"
       sodipodi:cy="418.99603"
       sodipodi:cx="57.578739"
       id="path4556"
       style="fill:#5c7700;fill-opacity:1;stroke:none"
       sodipodi:type="arc" />
    <path
       sodipodi:type="arc"
       style="fill:#5c7700;fill-opacity:1;stroke:none"
       id="path4558"
       sodipodi:cx="57.578739"
       sodipodi:cy="418.99603"
       sodipodi:rx="4.4291339"
       sodipodi:ry="4.4291339"
       d="m 62.007873,418.99603 c 0,2.44615 -1.982991,4.42914 -4.429134,4.42914 -2.446143,0 -4.429134,-1.98299 -4.429134,-4.42914 0,-2.44614 1.982991,-4.42913 4.429134,-4.42913 2.446143,0 4.429134,1.98299 4.429134,4.42913 z"
       transform="translate(513.77953,13.287416)" />
    <path
       sodipodi:type="arc"
       style="fill:#5c7700;fill-opacity:1;stroke:none"
       id="path4560"
       sodipodi:cx="57.578739"
       sodipodi:cy="418.99603"
       sodipodi:rx="4.4291339"
       sodipodi:ry="4.4291339"
       d="m 62.007873,418.99603 c 0,2.44615 -1.982991,4.42914 -4.429134,4.42914 -2.446143,0 -4.429134,-1.98299 -4.429134,-4.42914 0,-2.44614 1.982991,-4.42913 4.429134,-4.42913 2.446143,0 4.429134,1.98299 4.429134,4.42913 z"
       transform="translate(239.17323,13.287416)" />
    <text
       xml:space="preserve"
       style="font-size:40px;font-style:normal;font-weight:normal;text-align:center;line-height:125%;letter-spacing:0px;word-spacing:0px;text-anchor:middle;fill:#000000;fill-opacity:1;stroke:none;font-family:Sans"
       x="269.74802"
       y="423.42517"
       id="text4562"
       sodipodi:linespacing="125%"><tspan
         sodipodi:role="line"
         id="tspan4564"
         x="269.74802"
         y="423.42517"
         style="font-size:10.5px;font-style:italic;font-variant:normal;font-weight:normal;font-stretch:normal;text-align:center;text-anchor:middle;font-family:Minion Pro;-inkscape-font-specification:Minion Pro">v</tspan></text>
    <path
       style="font-size:438.40066528px;font-style:normal;font-weight:normal;line-height:125%;letter-spacing:0px;word-spacing:0px;fill:#000000;fill-opacity:1;stroke:none;font-family:Sans"
       d="m 240.95693,405.70865 c 0,-3.29679 -0.75752,-6.05553 -7.08086,-6.05553 -3.51297,0.054 -93.84874,0.48926 -97.36171,0.48926 -1.8916,0 -4.32567,-2.16348 -4.64994,-6.97354 l -1.83764,0 c -0.32427,4.81006 -2.7546,6.97354 -4.59215,6.97354 -3.35083,-0.054 -89.779137,-0.48926 -93.724477,-0.48926 -6.2693,0 -6.91905,2.75874 -6.91905,6.05553 l 1.7837,0 c 0.54045,-4.05342 2.59532,-4.54207 5.08142,-4.54207 3.29678,0 89.240347,0.75894 92.915447,0.75894 2.97252,0 5.56539,-1.29945 6.26799,-4.48814 l 0.21574,0 c 0.75664,3.18869 3.29546,4.48814 6.26797,4.48814 3.51298,0 93.52537,-0.75894 96.93024,-0.75894 2.37801,0 4.37916,0.48865 4.91962,4.54207 z"
       id="path6395"
       inkscape:connector-curvature="0"
       sodipodi:nodetypes="ccscccsccssccsscc" />
    <text
       sodipodi:linespacing="125%"
       id="text4603"
       y="389.9921"
       x="130.87401"
       style="font-size:40px;font-style:normal;font-weight:normal;text-align:center;line-height:125%;letter-spacing:0px;word-spacing:0px;text-anchor:middle;fill:#000000;fill-opacity:1;stroke:none;font-family:Sans"
       xml:space="preserve"><tspan
         style="font-size:10.5px;font-style:normal;font-variant:normal;font-weight:bold;font-stretch:normal;text-align:center;text-anchor:middle;fill:#000000;fill-opacity:1;font-family:Minion Pro;-inkscape-font-specification:Minion Pro"
         y="389.9921"
         x="130.87401"
         id="tspan4605"
         sodipodi:role="line">L</tspan></text>
    <path
       sodipodi:nodetypes="ccscccsccssccsscc"
       inkscape:connector-curvature="0"
       id="path4607"
       d="m 577.5711,405.70865 c 0,-3.29679 -0.75752,-6.05553 -7.08086,-6.05553 -3.51297,0.054 -124.71488,0.48926 -128.22785,0.48926 -1.8916,0 -4.32567,-2.16348 -4.64994,-6.97354 l -1.83764,0 c -0.32427,4.81006 -2.7546,6.97354 -4.59215,6.97354 -3.35083,-0.054 -129.77914,-0.48926 -133.72448,-0.48926 -6.2693,0 -6.91905,2.75874 -6.91905,6.05553 l 1.7837,0 c 0.54045,-4.05342 2.59532,-4.54207 5.08142,-4.54207 3.29678,0 129.24035,0.75894 132.91545,0.75894 2.97252,0 5.56539,-1.29945 6.26799,-4.48814 l 0.21574,0 c 0.75664,3.18869 3.29546,4.48814 6.26797,4.48814 3.51298,0 124.39151,-0.75894 127.79638,-0.75894 2.37801,0 4.37916,0.48865 4.91962,4.54207 z"
       style="font-size:438.40066528px;font-style:normal;font-weight:normal;line-height:125%;letter-spacing:0px;word-spacing:0px;fill:#000000;fill-opacity:1;stroke:none;font-family:Sans" />
    <text
       xml:space="preserve"
       style="font-size:40px;font-style:normal;font-weight:normal;text-align:center;line-height:125%;letter-spacing:0px;word-spacing:0px;text-anchor:middle;fill:#000000;fill-opacity:1;stroke:none;font-family:Sans"
       x="436.87402"
       y="389.9921"
       id="text4609"
       sodipodi:linespacing="125%"><tspan
         sodipodi:role="line"
         id="tspan4611"
         x="436.87402"
         y="389.9921"
         style="font-size:10.5px;font-style:normal;font-variant:normal;font-weight:bold;font-stretch:normal;text-align:center;text-anchor:middle;fill:#000000;fill-opacity:1;font-family:Minion Pro;-inkscape-font-specification:Minion Pro">R</tspan></text>
    <text
       sodipodi:linespacing="125%"
       id="text4613"
       y="423.42517"
       x="571.74805"
       style="font-size:40px;font-style:normal;font-weight:normal;text-align:center;line-height:125%;letter-spacing:0px;word-spacing:0px;text-anchor:middle;fill:#000000;fill-opacity:1;stroke:none;font-family:Sans"
       xml:space="preserve"><tspan
         style="font-size:10.5px;font-style:italic;font-variant:normal;font-weight:normal;font-stretch:normal;text-align:center;text-anchor:middle;font-family:Minion Pro;-inkscape-font-specification:Minion Pro"
         y="423.42517"
         x="571.74805"
         id="tspan4615"
         sodipodi:role="line">r</tspan></text>
    <path
       sodipodi:nodetypes="ccscccsccssccsscc"
       inkscape:connector-curvature="0"
       id="path4617"
       d="m 577.5711,379.13383 c 0,-3.29679 -0.75752,-6.05553 -7.08086,-6.05553 -3.51297,0.054 -272.67921,0.48927 -276.19218,0.48927 -1.8916,0 -4.32567,-2.16348 -4.64994,-6.97354 l -1.83764,0 c -0.32427,4.81006 -2.7546,6.97354 -4.59215,6.97354 -3.35083,-0.054 -247.562837,-0.48927 -251.508177,-0.48927 -6.2693,0 -6.91905,2.75874 -6.91905,6.05553 l 1.7837,0 c 0.54045,-4.05342 2.59532,-4.54207 5.08142,-4.54207 3.29678,0 247.024047,0.75895 250.699147,0.75895 2.97252,0 5.56539,-1.29945 6.26799,-4.48814 l 0.21574,0 c 0.75664,3.18869 3.29546,4.48814 6.26797,4.48814 3.51298,0 272.35584,-0.75895 275.76071,-0.75895 2.37801,0 4.37916,0.48865 4.91962,4.54207 z"
       style="font-size:438.40066528px;font-style:normal;font-weight:normal;line-height:125%;letter-spacing:0px;word-spacing:0px;fill:#000000;fill-opacity:1;stroke:none;font-family:Sans" />
    <text
       xml:space="preserve"
       style="font-size:40px;font-style:normal;font-weight:normal;text-align:center;line-height:125%;letter-spacing:0px;word-spacing:0px;text-anchor:middle;fill:#000000;fill-opacity:1;stroke:none;font-family:Sans"
       x="288.65771"
       y="363.13385"
       id="text4619"
       sodipodi:linespacing="125%"><tspan
         sodipodi:role="line"
         id="tspan4621"
         x="288.65771"
         y="363.13385"
         style="font-size:10.5px;font-style:normal;font-variant:normal;font-weight:normal;font-stretch:normal;text-align:center;text-anchor:middle;font-family:Minion Pro;-inkscape-font-specification:Minion Pro"><tspan
   style="font-weight:bold"
   id="tspan4623">L</tspan> ∪ {<tspan
   style="font-style:italic"
   id="tspan4625">v</tspan>} ∪ <tspan
   style="font-weight:bold"
   id="tspan4627">R</tspan></tspan></text>
    <path
       sodipodi:nodetypes="ccscccsccssccsscc"
       inkscape:connector-curvature="0"
       id="path4629"
       d="m 240.95693,458.85825 c 0,3.29679 -0.75752,6.05553 -7.08086,6.05553 -3.51297,-0.054 -93.84874,-0.48926 -97.36171,-0.48926 -1.8916,0 -4.32567,2.16348 -4.64994,6.97354 l -1.83764,0 c -0.32427,-4.81006 -2.7546,-6.97354 -4.59215,-6.97354 -3.35083,0.054 -89.779137,0.48926 -93.724477,0.48926 -6.2693,0 -6.91905,-2.75874 -6.91905,-6.05553 l 1.7837,0 c 0.54045,4.05342 2.59532,4.54207 5.08142,4.54207 3.29678,0 89.240347,-0.75894 92.915447,-0.75894 2.97252,0 5.56539,1.29945 6.26799,4.48814 l 0.21574,0 c 0.75664,-3.18869 3.29546,-4.48814 6.26797,-4.48814 3.51298,0 93.52537,0.75894 96.93024,0.75894 2.37801,0 4.37916,-0.48865 4.91962,-4.54207 z"
       style="font-size:438.40066528px;font-style:normal;font-weight:normal;line-height:125%;letter-spacing:0px;word-spacing:0px;fill:#000000;fill-opacity:1;stroke:none;font-family:Sans" />
    <path
       style="font-size:438.40066528px;font-style:normal;font-weight:normal;line-height:125%;letter-spacing:0px;word-spacing:0px;fill:#000000;fill-opacity:1;stroke:none;font-family:Sans"
       d="m 524.4215,458.85825 c 0,3.29679 -0.75752,6.05553 -7.08086,6.05553 -3.51297,-0.054 -99.56528,-0.48926 -103.07825,-0.48926 -1.8916,0 -4.32567,2.16348 -4.64994,6.97354 l -1.83764,0 c -0.32427,-4.81006 -2.7546,-6.97354 -4.59215,-6.97354 -3.35083,0.054 -101.77914,0.48926 -105.72448,0.48926 -6.2693,0 -6.91905,-2.75874 -6.91905,-6.05553 l 1.7837,0 c 0.54045,4.05342 2.59532,4.54207 5.08142,4.54207 3.29678,0 101.24035,-0.75894 104.91545,-0.75894 2.97252,0 5.56539,1.29945 6.26799,4.48814 l 0.21574,0 c 0.75664,-3.18869 3.29546,-4.48814 6.26797,-4.48814 3.51298,0 99.24191,0.75894 102.64678,0.75894 2.37801,0 4.37916,-0.48865 4.91962,-4.54207 z"
       id="path4631"
       inkscape:connector-curvature="0"
       sodipodi:nodetypes="ccscccsccssccsscc" />
    <text
       xml:space="preserve"
       style="font-size:40px;font-style:normal;font-weight:normal;text-align:center;line-height:125%;letter-spacing:0px;word-spacing:0px;text-anchor:middle;fill:#000000;fill-opacity:1;stroke:none;font-family:Sans"
       x="130.87401"
       y="481.9921"
       id="text4633"
       sodipodi:linespacing="125%"><tspan
         sodipodi:role="line"
         id="tspan4635"
         x="130.87401"
         y="481.9921"
         style="font-size:10.5px;font-style:normal;font-variant:normal;font-weight:bold;font-stretch:normal;text-align:center;text-anchor:middle;fill:#000000;fill-opacity:1;font-family:Minion Pro;-inkscape-font-specification:Minion Pro">L</tspan></text>
    <text
       sodipodi:linespacing="125%"
       id="text4637"
       y="481.9921"
       x="410.87402"
       style="font-size:40px;font-style:normal;font-weight:normal;text-align:center;line-height:125%;letter-spacing:0px;word-spacing:0px;text-anchor:middle;fill:#000000;fill-opacity:1;stroke:none;font-family:Sans"
       xml:space="preserve"><tspan
         style="font-size:10.5px;font-style:normal;font-variant:normal;font-weight:normal;font-stretch:normal;text-align:center;text-anchor:middle;font-family:Minion Pro;-inkscape-font-specification:Minion Pro"
         y="481.9921"
         x="410.87402"
         id="tspan4639"
         sodipodi:role="line"><tspan
   style="font-weight:bold"
   id="tspan4641">R</tspan>∖{<tspan
   style="font-style:italic"
   id="tspan4643">r</tspan>}</tspan></text>
    <path
       style="font-size:438.40066528px;font-style:normal;font-weight:normal;line-height:125%;letter-spacing:0px;word-spacing:0px;fill:#000000;fill-opacity:1;stroke:none;font-family:Sans"
       d="m 524.4215,485.43304 c 0,3.29679 -0.75752,6.05553 -7.08086,6.05553 -3.51297,-0.054 -241.31331,-0.48926 -244.82628,-0.48926 -1.8916,0 -4.32567,2.16348 -4.64994,6.97354 l -1.83764,0 c -0.32427,-4.81006 -2.7546,-6.97354 -4.59215,-6.97354 -3.35083,0.054 -225.779137,0.48926 -229.724477,0.48926 -6.2693,0 -6.91905,-2.75874 -6.91905,-6.05553 l 1.7837,0 c 0.54045,4.05342 2.59532,4.54207 5.08142,4.54207 3.29678,0 225.240347,-0.75894 228.915447,-0.75894 2.97252,0 5.56539,1.29945 6.26799,4.48814 l 0.21574,0 c 0.75664,-3.18869 3.29546,-4.48814 6.26797,-4.48814 3.51298,0 240.98994,0.75894 244.39481,0.75894 2.37801,0 4.37916,-0.48865 4.91962,-4.54207 z"
       id="path4645"
       inkscape:connector-curvature="0"
       sodipodi:nodetypes="ccscccsccssccsscc" />
    <text
       sodipodi:linespacing="125%"
       id="text4647"
       y="509.13385"
       x="270.65771"
       style="font-size:40px;font-style:normal;font-weight:normal;text-align:center;line-height:125%;letter-spacing:0px;word-spacing:0px;text-anchor:middle;fill:#000000;fill-opacity:1;stroke:none;font-family:Sans"
       xml:space="preserve"><tspan
         style="font-size:10.5px;font-style:normal;font-variant:normal;font-weight:normal;font-stretch:normal;text-align:center;text-anchor:middle;font-family:Minion Pro;-inkscape-font-specification:Minion Pro"
         y="509.13385"
         x="270.65771"
         id="tspan4649"
         sodipodi:role="line"><tspan
   id="tspan4651"
   style="font-weight:bold">L</tspan> ∪ {<tspan
   id="tspan4653"
   style="font-style:italic">v</tspan>} ∪ (<tspan
   id="tspan4655"
   style="font-weight:bold">R</tspan>∖{<tspan
   style="font-style:italic"
   id="tspan4659">r</tspan>})</tspan></text>
    <path
       style="font-size:438.40066528px;font-style:normal;font-weight:normal;line-height:125%;letter-spacing:0px;word-spacing:0px;fill:#000000;fill-opacity:1;stroke:none;font-family:Sans"
       d="m 577.5711,352.55903 c 0,-3.29679 -0.75752,-6.05553 -7.08086,-6.05553 -3.51297,0.054 -272.67921,0.48927 -276.19218,0.48927 -1.8916,0 -4.32567,-2.16348 -4.64994,-6.97354 l -1.83764,0 c -0.32427,4.81006 -2.7546,6.97354 -4.59215,6.97354 -3.35083,-0.054 -247.562837,-0.48927 -251.508177,-0.48927 -6.2693,0 -6.91905,2.75874 -6.91905,6.05553 l 1.7837,0 c 0.54045,-4.05342 2.59532,-4.54207 5.08142,-4.54207 3.29678,0 247.024047,0.75895 250.699147,0.75895 2.97252,0 5.56539,-1.29945 6.26799,-4.48814 l 0.21574,0 c 0.75664,3.18869 3.29546,4.48814 6.26797,4.48814 3.51298,0 272.35584,-0.75895 275.76071,-0.75895 2.37801,0 4.37916,0.48865 4.91962,4.54207 z"
       id="path5257"
       inkscape:connector-curvature="0"
       sodipodi:nodetypes="ccscccsccssccsscc" />
    <text
       sodipodi:linespacing="125%"
       id="text5259"
       y="336.55905"
       x="288.65771"
       style="font-size:40px;font-style:normal;font-weight:normal;text-align:center;line-height:125%;letter-spacing:0px;word-spacing:0px;text-anchor:middle;fill:#000000;fill-opacity:1;stroke:none;font-family:Sans"
       xml:space="preserve"><tspan
         style="font-size:10.5px;font-style:normal;font-variant:normal;font-weight:bold;font-stretch:normal;text-align:center;text-anchor:middle;font-family:Minion Pro;-inkscape-font-specification:Minion Pro"
         y="336.55905"
         x="288.65771"
         id="tspan5261"
         sodipodi:role="line">S</tspan></text>
    <text
       xml:space="preserve"
       style="font-size:40px;font-style:normal;font-weight:normal;text-align:center;line-height:125%;letter-spacing:0px;word-spacing:0px;text-anchor:middle;fill:#000000;fill-opacity:1;stroke:none;font-family:Sans"
       x="268.32285"
       y="534.58264"
       id="text5271"
       sodipodi:linespacing="125%"><tspan
         sodipodi:role="line"
         id="tspan5273"
         x="268.32285"
         y="534.58264"
         style="font-size:10.5px;font-style:normal;font-variant:normal;font-weight:normal;font-stretch:normal;text-align:center;text-anchor:middle;font-family:Minion Pro;-inkscape-font-specification:Minion Pro"><tspan
   id="tspan5275"
   style="font-weight:bold">S</tspan>∖{<tspan
   id="tspan5277"
   style="font-style:italic">r</tspan>}</tspan></text>
    <path
       sodipodi:nodetypes="ccscccsccssccsscc"
       inkscape:connector-curvature="0"
       id="path5281"
       d="m 524.4215,512.00785 c 0,3.29679 -0.75752,6.05553 -7.08086,6.05553 -3.51297,-0.054 -241.31331,-0.48926 -244.82628,-0.48926 -1.8916,0 -4.32567,2.16348 -4.64994,6.97354 l -1.83764,0 c -0.32427,-4.81006 -2.7546,-6.97354 -4.59215,-6.97354 -3.35083,0.054 -225.779137,0.48926 -229.724477,0.48926 -6.2693,0 -6.91905,-2.75874 -6.91905,-6.05553 l 1.7837,0 c 0.54045,4.05342 2.59532,4.54207 5.08142,4.54207 3.29678,0 225.240347,-0.75894 228.915447,-0.75894 2.97252,0 5.56539,1.29945 6.26799,4.48814 l 0.21574,0 c 0.75664,-3.18869 3.29546,-4.48814 6.26797,-4.48814 3.51298,0 240.98994,0.75894 244.39481,0.75894 2.37801,0 4.37916,-0.48865 4.91962,-4.54207 z"
       style="font-size:438.40066528px;font-style:normal;font-weight:normal;line-height:125%;letter-spacing:0px;word-spacing:0px;fill:#000000;fill-opacity:1;stroke:none;font-family:Sans" />
  </g>
</svg>
